<?xml version="1.0" standalone="no"?>
<!DOCTYPE svg PUBLIC "-//W3C//DTD SVG 20010904//EN"
 "http://www.w3.org/TR/2001/REC-SVG-20010904/DTD/svg10.dtd">
<svg version="1.0" xmlns="http://www.w3.org/2000/svg"
 width="1024.000000pt" height="334.000000pt" viewBox="0 0 1024.000000 334.000000"
 preserveAspectRatio="xMidYMid meet">

<g transform="translate(0.000000,334.000000) scale(0.100000,-0.100000)"
fill="#000000" stroke="none">
<path d="M2950 2665 c-58 -25 -150 -64 -205 -87 -90 -37 -109 -50 -187 -126
-84 -82 -87 -86 -103 -155 -9 -40 -19 -80 -22 -89 -4 -15 -16 -18 -81 -18 -89
0 -181 -21 -271 -61 -42 -19 -68 -26 -74 -20 -6 6 -11 64 -12 130 -2 108 -4
124 -29 173 -56 108 -164 188 -295 218 -36 9 -99 11 -190 7 -116 -4 -159 -11
-291 -45 -191 -50 -349 -103 -388 -130 -16 -12 -58 -52 -95 -91 -93 -99 -94
-102 -17 -314 81 -226 92 -242 181 -270 18 -6 51 -93 198 -517 64 -187 107
-294 122 -311 35 -38 97 -47 152 -21 23 11 60 28 82 37 22 9 75 39 118 67 58
38 90 52 125 56 45 4 51 1 101 -41 95 -82 197 -119 326 -120 99 -1 191 22 302
75 45 22 103 43 126 45 52 6 53 4 63 -119 8 -89 27 -129 76 -155 28 -15 62
-17 228 -17 l195 0 91 42 c51 23 112 45 136 48 41 6 49 2 128 -51 109 -73 133
-85 167 -85 36 0 124 46 221 116 82 59 126 75 327 118 96 21 144 38 241 86 87
44 131 60 161 60 l40 0 41 -90 c30 -65 50 -95 72 -108 36 -23 282 -48 383 -40
109 9 201 75 306 221 39 53 91 97 116 97 6 0 28 -26 50 -56 130 -182 351 -232
702 -159 143 29 164 30 206 9 27 -14 54 -16 187 -11 189 8 271 24 343 70 113
73 177 164 177 253 0 116 48 194 119 194 51 0 49 -23 -12 -144 -66 -133 -68
-138 -60 -176 11 -58 48 -83 203 -137 376 -132 606 -150 818 -64 146 59 151
59 278 15 105 -37 114 -38 244 -38 263 -1 427 58 593 214 77 72 137 179 144
257 5 44 2 53 -40 109 -24 33 -50 71 -57 84 -16 31 -8 96 26 190 14 41 29 99
31 128 5 53 4 54 -40 97 -91 87 -232 136 -392 136 -113 0 -180 -15 -300 -66
-45 -19 -83 -35 -86 -35 -2 0 -13 16 -23 34 -25 47 -74 68 -361 149 -175 50
-246 62 -375 62 -141 0 -228 -24 -323 -89 l-63 -43 -34 24 c-129 90 -256 112
-417 71 -34 -8 -53 -8 -84 2 -32 11 -63 10 -191 -4 -175 -21 -207 -31 -265
-88 l-42 -41 -63 13 c-193 38 -398 -7 -578 -129 -41 -28 -45 -29 -62 -14 -12
11 -18 30 -18 58 0 48 -32 103 -70 122 -30 14 -416 49 -451 40 -13 -3 -53 -31
-89 -61 -36 -31 -68 -56 -72 -56 -4 0 -18 21 -30 47 -38 78 -57 86 -220 94
-79 5 -180 11 -226 14 l-84 7 -17 41 c-32 75 -200 316 -231 332 -57 30 -71 25
-330 -118 -152 -84 -199 -115 -262 -175 -77 -74 -108 -120 -108 -165 0 -13 14
-52 32 -86 17 -33 29 -63 27 -65 -2 -2 -48 1 -103 6 -92 10 -102 9 -152 -12
-30 -12 -61 -20 -68 -17 -26 10 -47 104 -61 273 -21 241 -33 342 -44 362 -19
35 -60 64 -98 68 -29 3 -63 -7 -143 -41z m134 -142 c3 -32 15 -213 27 -403 12
-190 23 -347 26 -350 2 -3 28 8 56 24 29 15 95 50 148 78 l97 50 143 -22 c79
-12 146 -24 149 -27 5 -5 -9 -16 -218 -178 -86 -66 -157 -125 -159 -130 -2 -6
80 -73 182 -149 118 -88 187 -146 190 -160 7 -38 17 -256 11 -256 -12 0 -95
56 -317 216 -125 90 -231 164 -235 164 -4 0 -4 -76 0 -168 l7 -169 -68 -6
c-37 -4 -114 -7 -170 -7 l-101 0 -6 83 c-4 45 -13 226 -21 402 -9 176 -20 385
-25 465 -5 80 -10 177 -10 217 0 39 -4 74 -8 77 -5 3 -27 0 -50 -6 -24 -6 -45
-8 -47 -6 -7 7 25 161 36 172 10 11 329 145 346 146 6 0 13 -24 17 -57z
m-1373 -29 c87 -40 159 -125 159 -188 0 -85 -107 -242 -286 -421 l-111 -110
64 -225 64 -225 -28 -23 c-59 -48 -155 -114 -159 -109 -3 3 -77 211 -166 463
-88 253 -162 461 -164 463 -2 2 -17 -11 -35 -28 -17 -18 -35 -29 -40 -24 -4 4
-32 74 -62 155 -38 104 -51 150 -43 156 19 15 287 94 401 118 145 31 335 30
406 -2z m2574 -89 c41 -64 75 -118 75 -120 0 -2 -19 -9 -41 -15 -48 -13 -388
-80 -406 -80 -14 0 -94 120 -87 131 9 15 352 198 372 199 6 0 46 -52 87 -115z
m3855 -263 c63 -16 174 -48 247 -71 l131 -42 -39 -90 c-56 -128 -67 -149 -85
-149 -9 0 -66 16 -128 35 -152 47 -313 85 -361 85 -47 0 -85 -23 -85 -50 0
-47 67 -75 268 -109 230 -39 352 -144 352 -304 0 -70 -16 -112 -66 -166 -97
-109 -228 -133 -461 -86 -86 18 -403 112 -416 125 -9 8 79 188 112 230 14 18
22 21 33 13 7 -6 72 -29 145 -52 142 -44 241 -53 313 -27 l35 13 -31 16 c-18
9 -85 26 -150 37 -239 42 -347 99 -406 214 -17 33 -20 53 -16 115 8 139 73
235 181 270 95 30 95 30 207 26 73 -3 140 -13 220 -33z m-831 -2 c78 -36 138
-87 165 -142 21 -42 24 -55 14 -64 -26 -25 -222 -154 -235 -154 -7 0 -19 13
-28 29 -36 71 -103 91 -147 44 -48 -53 -52 -80 -53 -340 0 -133 -3 -244 -6
-248 -4 -3 -80 -15 -169 -26 -124 -15 -165 -17 -170 -8 -22 34 -53 870 -33
882 4 3 68 13 142 22 l134 17 17 -22 17 -22 99 25 c121 32 194 33 253 7z
m-2391 -25 c2 -2 38 -96 81 -210 44 -114 83 -211 88 -216 6 -6 28 41 58 118
105 274 114 293 145 293 38 0 324 -30 328 -35 2 -2 -78 -211 -178 -464 -134
-338 -187 -461 -201 -464 -34 -9 -319 6 -327 17 -5 6 -34 76 -65 156 -31 80
-111 285 -178 455 -67 171 -125 323 -130 339 l-8 28 192 -7 c106 -4 193 -8
195 -10z m-2424 -75 c80 -30 146 -97 176 -175 30 -81 31 -221 1 -315 -34 -108
-155 -246 -262 -301 -197 -100 -419 -32 -497 151 -52 123 -56 281 -8 385 58
128 176 226 326 271 64 20 190 12 264 -16z m1861 -27 c63 -20 137 -57 154 -77
11 -13 -14 -48 -175 -241 -104 -124 -190 -230 -192 -235 -6 -18 33 -11 85 15
28 14 77 53 109 87 l58 61 29 -34 c141 -168 141 -167 122 -195 -110 -168 -506
-251 -698 -146 -89 48 -137 148 -137 285 0 140 53 290 127 362 123 120 347
171 518 118z m2055 -3 c58 -17 160 -71 160 -85 0 -3 -85 -107 -190 -232 -104
-124 -190 -231 -190 -236 0 -5 12 -6 28 -2 59 14 114 49 167 107 47 51 59 58
69 47 7 -8 45 -53 85 -101 82 -99 82 -97 6 -167 -97 -89 -241 -135 -430 -135
-125 -1 -132 0 -196 30 -75 36 -110 74 -141 156 -51 135 -4 381 95 492 41 45
136 102 207 123 120 35 215 36 330 3z m2780 0 c36 -11 87 -33 113 -51 41 -27
46 -33 35 -48 -7 -8 -96 -115 -197 -236 -196 -234 -204 -251 -94 -200 39 17
77 46 115 87 32 34 59 60 61 57 2 -2 38 -46 81 -97 91 -108 92 -118 19 -181
-102 -90 -239 -134 -423 -135 -157 -1 -212 15 -280 84 -100 99 -115 291 -38
477 38 93 90 151 175 196 144 75 283 90 433 47z"/>
<path d="M1401 2200 c-41 -19 -43 -22 -37 -52 13 -63 47 -168 55 -168 11 0
111 114 146 167 15 23 25 49 21 58 -9 23 -129 20 -185 -5z"/>
<path d="M2284 1900 c-61 -35 -90 -68 -105 -122 -12 -47 0 -95 34 -125 116
-107 265 -44 297 126 12 62 1 95 -19 59 -15 -29 -93 -88 -114 -88 -28 0 -57
37 -57 74 0 19 11 49 25 70 21 31 22 36 7 36 -9 0 -40 -13 -68 -30z"/>
<path d="M4025 1787 c-23 -13 -48 -37 -57 -57 -22 -42 -24 -148 -5 -174 12
-17 23 -6 115 109 56 70 99 131 96 136 -11 18 -108 9 -149 -14z"/>
<path d="M6082 1793 c-42 -20 -69 -55 -82 -105 -17 -61 5 -168 29 -143 40 41
199 250 195 257 -9 14 -108 8 -142 -9z"/>
<path d="M8865 1796 c-68 -29 -107 -116 -91 -198 11 -57 22 -66 44 -38 11 14
58 72 105 130 47 57 83 108 81 112 -8 13 -106 8 -139 -6z"/>
</g>
</svg>
